<?xml version="1.0" encoding="UTF-8"?><svg id="Layer_1" xmlns="http://www.w3.org/2000/svg" viewBox="0 0 100.93 113.29"><polygon points="2.5 86.89 50.46 110.37 98.96 86.89 98.96 27.09 50.73 3.27 2.5 27.09 2.5 86.89" fill="#fff"/><path d="M100.84,26.43c-.02-.07-.06-.13-.08-.2-.05-.14-.1-.28-.18-.4-.04-.07-.1-.14-.15-.21-.08-.11-.15-.21-.25-.31-.07-.07-.15-.12-.22-.18-.08-.06-.14-.13-.22-.18-.03-.02-.06-.02-.09-.04-.03-.02-.05-.04-.07-.05L51.6.28c-.72-.37-1.56-.37-2.28,0L1.36,24.86s-.05.04-.07.05c-.03.02-.06.02-.09.04-.08.05-.15.12-.22.18-.07.06-.15.11-.22.18-.09.09-.17.2-.25.31-.05.07-.11.13-.15.21-.07.13-.13.26-.18.4-.02.07-.06.13-.08.2-.06.21-.09.43-.09.66v59.11c0,.94.53,1.8,1.36,2.22l47.96,24.59c.1.05.2.08.3.11.07.03.14.06.21.08.19.05.39.08.58.08.01,0,.03,0,.04,0,.21,0,.42-.03.63-.09.07-.02.13-.05.19-.07.11-.04.22-.07.32-.12l47.96-24.59c.83-.43,1.36-1.29,1.36-2.22V27.09c0-.23-.03-.45-.09-.66ZM50.46,5.31l42.48,21.78-4.81,2.46-37.68,19.31L12.79,29.55l-4.81-2.46L50.46,5.31ZM47.96,106.7L5,84.67V31.18l42.96,22.02v53.49ZM95.93,84.67l-42.96,22.02v-53.49l42.96-22.02v53.49Z" fill="#9399a5"/></svg>