<?xml version="1.0" encoding="UTF-8"?><svg id="Layer_1" xmlns="http://www.w3.org/2000/svg" viewBox="0 0 161.59 96.85"><polygon points="2 60.72 70.39 94.74 159.32 49.49 159.32 37.2 91.06 2.41 4 48.43 2 60.72" fill="#fff"/><path d="M161.52,36.36c-.02-.06-.05-.11-.07-.16-.04-.11-.08-.22-.14-.32-.04-.06-.08-.11-.12-.17-.06-.09-.12-.17-.2-.24-.05-.05-.11-.09-.17-.14-.06-.05-.11-.1-.18-.15-.02-.01-.05-.02-.07-.03-.02-.01-.04-.03-.06-.04L92.44.22c-.57-.29-1.25-.29-1.82,0L1.09,46.11s-.04.03-.06.04c-.02.01-.05.02-.07.03-.07.04-.12.1-.18.14-.06.05-.12.09-.18.14-.08.07-.14.16-.2.24-.04.06-.09.11-.12.17-.06.1-.1.21-.14.32-.02.06-.05.11-.07.16-.05.17-.07.35-.07.53v12.07c0,.75.42,1.44,1.09,1.78l68.07,34.89c.08.04.17.06.25.09.05.02.1.04.16.06.17.04.33.07.5.07s.34-.03.5-.07c.06-.01.11-.04.16-.06.08-.03.17-.05.25-.09l89.53-45.89c.67-.34,1.09-1.03,1.09-1.78v-12.07c0-.18-.03-.36-.07-.53ZM91.53,4.25l63.68,32.64-85.14,43.65L6.39,47.89,91.53,4.25ZM4,51.17l62.97,32.28,1.1.56v7.57L4,58.74v-7.57ZM157.59,47.73l-85.53,43.84v-7.57l85.53-43.84v7.57Z" fill="#9399a5"/><path d="M44.14,60.69c-.14-.03-.28-.07-.4-.13l-4.02-2.11c-.42-.22-.48-.58-.14-.82.34-.23.96-.24,1.38-.02l4.02,2.11c.42.22.48.58.14.82-.24.16-.63.22-.98.15Z" fill="#9399a5"/><path d="M50.78,64.07c-.14-.03-.28-.07-.4-.13l-4.02-2.11c-.42-.22-.48-.58-.14-.82.34-.23.96-.24,1.38-.02l4.02,2.11c.42.22.48.58.14.82-.24.16-.63.22-.98.15Z" fill="#9399a5"/><path d="M50.69,69.17c-.16,0-.31-.04-.46-.11l-17.86-9.15c-.33-.17-.54-.51-.54-.89s.21-.72.54-.89l9.45-4.85c.28-.15.61-.15.9,0l18.19,8.98c.34.17.55.51.56.89s-.21.73-.54.9l-9.79,5.02c-.14.07-.3.11-.46.11ZM35.03,59.02l15.66,8.03,7.57-3.88-15.96-7.88-7.27,3.73Z" fill="#9399a5"/></svg>